<svg width="376" height="72" viewBox="0 0 376 72" fill="none" xmlns="http://www.w3.org/2000/svg">
<path fill-rule="evenodd" clip-rule="evenodd" d="M375.617 26.5739L365.471 26.7403V45.4261H374.786V50.9154L365.471 51.1926C362.255 51.1926 359.704 48.5866 359.704 45.4261V26.7403L355.324 26.7957V21.0292H359.704V16.6489L363.253 12.2685H365.471V21.0847H375.617V26.5739ZM236.505 12.324H238.723V21.0847H248.869V26.574L238.723 26.7403V45.4815H248.037V50.9709L238.723 51.2481C235.507 51.2481 232.956 48.6421 232.956 45.4815V26.7958L228.576 26.8512V21.0847H232.956V16.7044L236.505 12.324ZM126.39 26.8512V36.1663V45.4815C126.39 48.6974 123.784 51.248 120.624 51.248H111.309H101.994C98.7786 51.248 96.2281 48.642 96.2281 45.4815V36.1663V26.8512C96.2281 23.6352 98.834 21.0846 101.994 21.0846H111.309H120.624C123.84 21.0846 126.39 23.6907 126.39 26.8512ZM120.624 45.4815V36.1663V26.8512H111.309H101.994V36.1663V45.4815H111.309H120.624ZM72.4974 26.9069C72.4974 23.691 75.1034 21.1404 78.2638 21.1404H85.139H92.0142V26.9069H85.139H78.2638V39.1054V51.3038H72.4974V39.1054V26.9069ZM137.923 21.1404C134.763 21.1404 132.157 23.691 132.157 26.9069V36.2221V45.5373C132.157 48.6978 134.707 51.3038 137.923 51.3038L158.216 51.0265V45.5373H137.923V36.2221V26.9069H158.216V21.4176L137.923 21.1404ZM183.444 21.1404H191.261L177.622 35.5013L192.869 51.2483H184.941L173.075 39.0499H172.632H169.749V51.2483H163.982V36.1666V21.1404H169.749V33.2834H172.022L183.444 21.1404ZM199.855 45.4815V39.0496L224.251 38.7724V33.2831V26.8512C224.251 23.6907 221.701 21.0846 218.485 21.0846H209.17H199.855C196.695 21.0846 194.089 23.6352 194.089 26.8512V36.1663V45.4815C194.089 48.642 196.64 51.248 199.855 51.248L224.251 50.9708V45.4815H199.855ZM199.855 26.8512H209.17H218.485V33.2831H212.053H199.855V26.8512ZM279.253 39.0496C279.253 35.8891 276.703 33.2831 273.487 33.2831H266.223H258.96V26.8512H279.253V21.3619L258.96 21.0846C255.8 21.0846 253.194 23.6352 253.194 26.8512V33.2831C253.194 36.4436 255.744 39.0496 258.96 39.0496H266.223H273.487V45.4815H253.194V50.9708L273.487 51.248C276.647 51.248 279.253 48.6974 279.253 45.4815V39.0496ZM300.045 21.1404H309.36C312.576 21.1404 315.126 23.691 315.126 26.9069V33.3388V38.8281L290.73 39.1054V45.5373H315.126V51.0265L290.73 51.3038C287.514 51.3038 284.964 48.6978 284.964 45.5373V36.2221V26.9069C284.964 23.691 287.57 21.1404 290.73 21.1404H300.045ZM290.73 26.8515V33.2834H309.36V26.8515H300.045H290.73ZM345.289 21.1404L320.893 21.4176V26.9069H345.289V33.3388L320.893 33.6161V39.1054V45.5373C320.893 48.6978 323.443 51.3038 326.659 51.3038H335.974H345.289C348.449 51.3038 351.055 48.7532 351.055 45.5373V36.2221V26.9069C351 23.691 348.449 21.1404 345.289 21.1404ZM345.289 45.4818H335.974H326.659V39.0499H345.289V45.4818Z" fill="#C4C4CC"/>
<path d="M57.2499 1.40093L47.8796 0.0147489C47.6024 -0.0406986 47.3251 0.0701895 47.2143 0.181084L43.2222 5.39314C42.945 5.72582 42.8895 6.1694 43.0004 6.55754C43.1113 6.94567 42.7786 7.27836 42.3905 7.22291L39.1192 6.50209C38.6202 6.39119 38.0658 6.55755 37.7331 7.00113L24.7589 23.6353C24.5371 23.968 24.0935 24.0789 23.7054 23.9126L18.7708 21.6947C18.3272 21.4729 17.8282 21.5283 17.4401 21.8056L14.9451 23.5244C14.5569 23.8017 14.0025 23.8571 13.5589 23.6353L12.3391 23.0254C11.5629 22.6373 10.6203 23.0809 10.3985 23.9126L9.51141 27.8493C9.28963 28.7919 9.67775 29.7346 10.5094 30.2336L12.3946 31.398L18.4381 35.113L21.3767 36.9427C22.2084 37.4418 23.2619 37.3308 23.9827 36.7209L28.9173 32.396C29.3054 32.0634 29.9153 31.9525 30.3589 32.2297L31.8559 33.006C32.3549 33.2832 32.9648 33.1723 33.3529 32.7842L35.848 30.4554C36.2361 30.0672 36.846 30.0118 37.2895 30.2336L41.0044 31.9525C41.5588 32.2297 42.2242 32.0634 42.6123 31.5643L44.3311 29.3464L57.3607 12.6568C57.9706 11.8805 57.5825 10.7161 56.5845 10.4943L53.7014 9.82893C53.0915 9.71804 52.8142 8.94178 53.2578 8.4982L57.7489 2.898C58.1924 2.23264 57.9152 1.51183 57.2499 1.40093Z" fill="#C4C4CC"/>
<path d="M14.2797 35.002C14.0025 34.8356 13.7253 35.1129 13.8362 35.3901L15.2223 39.0496C15.3332 39.3269 15.3332 39.6041 15.2777 39.8814L14.0579 44.6498C14.0025 44.9825 14.1134 45.3152 14.3352 45.4815L17.8282 48.1985C18.1609 48.4203 18.6045 48.4203 18.8817 48.143L22.5411 44.9271C22.7629 44.7607 23.0401 44.6498 23.2619 44.5944L27.4203 44.1508C27.6975 44.0954 27.8084 43.7072 27.5312 43.5409L14.2797 35.002Z" fill="#C4C4CC"/>
<path d="M13.0599 47.3113C12.8381 47.145 12.5054 47.0895 12.2282 47.2004L9.28961 48.642C9.12327 48.6975 9.01237 48.8638 8.90148 49.0302L2.63616 64.5C2.63616 64.5555 2.63616 64.5554 2.63616 64.6109C2.69161 64.6663 2.74705 64.7218 2.85794 64.7218L4.29952 64.1673C4.35497 64.1673 4.41041 64.1673 4.46585 64.1673C4.5213 64.2228 4.57675 64.3337 4.5213 64.3891L0.030222 71.7636C-0.0806688 71.93 0.141118 72.0963 0.252008 71.93L16.4975 55.6284C16.6638 55.4621 16.7193 55.2958 16.7747 55.074L17.1074 50.8599C17.1074 50.5827 16.9965 50.3609 16.8302 50.1946L13.0599 47.3113Z" fill="#C4C4CC"/>
</svg>
