<svg width="467" height="196" viewBox="0 0 467 196" fill="none" xmlns="http://www.w3.org/2000/svg">
<g filter="url(#filter0_ddddd_707_89)">
<rect x="23" y="4" width="421" height="112" rx="56" fill="#202024"/>
<path d="M82.7317 82.3259C81.4959 81.6163 80.4987 80.7191 79.7323 79.6417C78.915 78.5154 78.3245 77.2765 77.9569 75.9288C77.5893 74.581 77.4094 73.2596 77.4094 71.9681V67.9699C77.4094 65.7963 76.8815 64.2346 75.8256 63.2885C74.7698 62.3425 73.1625 61.8657 71 61.8657V56.9627C73.1625 56.9627 74.7698 56.4897 75.8256 55.5399C76.8815 54.5939 77.4094 53.0133 77.4094 50.8059V46.8077C77.4094 45.4187 77.6128 43.9846 78.0234 42.5054C78.434 41.0263 79.0792 39.7386 79.963 38.6424C80.6943 37.6964 81.6563 36.9192 82.849 36.3148C84.0417 35.7104 85.4612 35.4063 87.1154 35.4063L87.9836 39.2543C86.9433 39.2205 86.1456 39.4308 85.5825 39.8813C85.0194 40.3318 84.6127 40.9249 84.3546 41.657C84.1004 42.3928 83.9518 43.215 83.9088 44.1197C83.8657 45.0282 83.8462 45.9217 83.8462 46.804V50.8021C83.8462 52.7468 83.3495 54.4737 82.3524 55.9754C81.3552 57.4808 79.8105 58.6221 77.7183 59.4067C79.83 60.1913 81.3786 61.3288 82.368 62.8155C83.3535 64.3021 83.8501 66.0178 83.8501 67.9662V71.9644C83.8501 72.8466 83.9048 73.7439 84.0143 74.6486C84.1238 75.5571 84.335 76.3755 84.64 77.1113C84.9451 77.8472 85.3674 78.4403 85.9031 78.8908C86.4389 79.3413 87.1311 79.5478 87.9836 79.5178L87.1154 83.3921C85.43 83.3921 83.9713 83.0354 82.7356 82.3259H82.7317Z" fill="#8257E5"/>
<path d="M380.473 78.8945C381.009 78.444 381.431 77.8509 381.736 77.1151C382.041 76.3792 382.256 75.5571 382.373 74.6523C382.491 73.7438 382.553 72.8503 382.553 71.9681V67.9699C382.553 67.0239 382.667 66.1229 382.898 65.2744C383.128 64.426 383.48 63.6301 383.957 62.898C384.434 62.1622 385.033 61.5052 385.756 60.9233C386.48 60.3452 387.344 59.8497 388.349 59.4404C387.532 59.1138 386.808 58.7196 386.178 58.2654C385.549 57.8074 385.005 57.3006 384.544 56.745C383.863 55.9265 383.359 55.018 383.038 54.0119C382.718 53.0058 382.553 51.9396 382.553 50.8134V46.8152C382.553 45.933 382.534 45.0395 382.491 44.131C382.448 43.2225 382.299 42.404 382.045 41.6682C381.791 40.9324 381.38 40.3393 380.817 39.8925C380.254 39.4458 379.456 39.2355 378.416 39.2656L379.284 35.4175C381.106 35.4175 382.639 35.7742 383.883 36.4837C385.127 37.1933 386.139 38.1468 386.921 39.3406C387.668 40.4181 388.204 41.6232 388.517 42.9559C388.83 44.2886 388.99 45.5763 388.99 46.8189V50.8171C388.99 51.7331 389.08 52.5403 389.26 53.2461C389.44 53.9481 389.718 54.545 390.089 55.0368C390.582 55.7088 391.278 56.1968 392.169 56.5084C393.065 56.82 394.14 56.974 395.4 56.974V61.8769C393.988 61.8769 392.811 62.0684 391.876 62.4513C390.938 62.8342 390.234 63.4537 389.757 64.3021C389.502 64.7601 389.311 65.2969 389.182 65.9089C389.053 66.5208 388.99 67.2116 388.99 67.9812V71.9794C388.99 73.2558 388.795 74.5772 388.404 75.9513C388.013 77.3253 387.434 78.5492 386.667 79.6304C385.901 80.7566 384.9 81.6689 383.668 82.3634C382.432 83.0579 380.974 83.407 379.288 83.407L378.42 79.5327C379.253 79.5665 379.941 79.3563 380.477 78.9058L380.473 78.8945Z" fill="#8257E5"/>
<path d="M112.577 64.5124H107.645L105.807 74.566H101.134L102.972 64.5124H97.1729V60.2965H103.735L105.01 53.3325H99.0851V49.0677H105.803L107.669 38.8677H112.318L110.453 49.0677H115.408L117.273 38.8677H121.946L120.081 49.0677H125.673V53.3325H119.287L118.008 60.2965H123.729V64.5124H117.242L115.404 74.566H110.731L112.569 64.5124H112.577ZM108.412 60.2965H113.343L114.618 53.3325H109.663L108.412 60.2965Z" fill="#C6ADFF"/>
<path d="M154.435 61.5468C154.435 65.7965 153.489 69.1115 151.6 71.4879C149.712 73.8642 147.072 75.0543 143.681 75.0543C140.686 75.0543 138.293 73.9506 136.506 71.7431L136.173 74.5625H129.533V36.9045H136.912V50.4157C138.613 48.5049 140.854 47.5475 143.631 47.5475C147.002 47.5475 149.645 48.7376 151.561 51.114C153.477 53.4904 154.435 56.8391 154.435 61.1526V61.5468ZM147.052 61.0325C147.052 58.352 146.61 56.3961 145.723 55.161C144.839 53.9259 143.517 53.3102 141.765 53.3102C139.415 53.3102 137.796 54.2337 136.912 56.0808V66.5511C137.816 68.4132 139.45 69.348 141.816 69.348C144.182 69.348 145.766 68.2217 146.517 65.9655C146.872 64.888 147.052 63.2437 147.052 61.0363V61.0325Z" fill="#C6ADFF"/>
<path d="M157.834 61.0546C157.834 58.4229 158.362 56.0766 159.418 54.0193C160.474 51.9582 161.991 50.3665 163.977 49.2365C165.96 48.1102 168.263 47.5433 170.887 47.5433C174.618 47.5433 177.661 48.6396 180.019 50.8282C182.377 53.0207 183.691 55.994 183.964 59.7519L184.015 61.5651C184.015 65.6347 182.83 68.9008 180.464 71.3598C178.098 73.8187 174.923 75.0501 170.938 75.0501C166.953 75.0501 163.774 73.8262 161.4 71.371C159.027 68.9158 157.838 65.5859 157.838 61.3662V61.0471L157.834 61.0546ZM165.213 61.5576C165.213 64.0804 165.706 66.0063 166.695 67.339C167.681 68.6755 169.096 69.34 170.934 69.34C172.772 69.34 174.118 68.6793 175.123 67.3653C176.128 66.0476 176.628 63.9415 176.628 61.0433C176.628 58.5731 176.128 56.6547 175.123 55.2957C174.118 53.9367 172.706 53.2572 170.884 53.2572C169.061 53.2572 167.681 53.9329 166.695 55.2844C165.706 56.6359 165.213 58.727 165.213 61.5576Z" fill="#C6ADFF"/>
<path d="M204.088 54.68C203.083 54.5486 202.2 54.4848 201.433 54.4848C198.641 54.4848 196.811 55.3933 195.943 57.2066V74.5658H188.563V48.0351H195.536L195.739 51.1961C197.221 48.7597 199.271 47.5433 201.895 47.5433C202.712 47.5433 203.478 47.6485 204.194 47.8624L204.092 54.68H204.088Z" fill="#C6ADFF"/>
<path d="M222.885 74.5677C222.545 73.9295 222.298 73.1373 222.146 72.1875C220.359 74.0984 218.032 75.0557 215.173 75.0557C212.467 75.0557 210.223 74.3049 208.443 72.7995C206.664 71.2978 205.776 69.4019 205.776 67.1119C205.776 64.3 206.863 62.1414 209.034 60.6397C211.204 59.1343 214.34 58.376 218.447 58.3609H221.845V56.8405C221.845 55.6129 221.516 54.6331 220.863 53.8972C220.206 53.1614 219.174 52.7935 217.758 52.7935C216.515 52.7935 215.541 53.0788 214.833 53.6532C214.125 54.2239 213.773 55.0085 213.773 56.0071H206.394C206.394 54.4716 206.887 53.0488 207.876 51.7424C208.862 50.4359 210.262 49.4073 212.065 48.6639C213.867 47.9206 215.897 47.549 218.142 47.549C221.548 47.549 224.25 48.3711 226.252 50.0117C228.25 51.656 229.251 53.9648 229.251 56.9381V68.4371C229.267 70.9562 229.635 72.8595 230.35 74.151V74.5677H222.893H222.885ZM216.781 69.6385C217.872 69.6385 218.877 69.4057 219.796 68.9402C220.715 68.4747 221.395 67.8477 221.837 67.0631V62.5018H219.08C215.385 62.5018 213.418 63.7294 213.179 66.1809L213.156 66.5976C213.156 67.4798 213.48 68.2081 214.125 68.7788C214.771 69.3494 215.658 69.6385 216.781 69.6385Z" fill="#C6ADFF"/>
<path d="M264.592 62.6771C264.303 66.5177 262.824 69.5435 260.161 71.751C257.498 73.9584 253.983 75.0621 249.626 75.0621C244.859 75.0621 241.109 73.5229 238.376 70.4408C235.642 67.3586 234.277 63.1314 234.277 57.7517V55.5705C234.277 52.1392 234.907 49.1133 236.166 46.5004C237.425 43.8838 239.228 41.8791 241.567 40.4825C243.905 39.086 246.627 38.3877 249.728 38.3877C254.018 38.3877 257.475 39.4914 260.099 41.6989C262.719 43.9063 264.236 47.0035 264.647 50.9904H256.986C256.798 48.6854 256.13 47.0148 254.98 45.9749C253.83 44.9387 252.082 44.4169 249.732 44.4169C247.178 44.4169 245.266 45.2954 243.999 47.0523C242.732 48.8093 242.079 51.5348 242.044 55.2289V57.9244C242.044 61.7837 242.654 64.603 243.87 66.3825C245.086 68.1657 247.006 69.0555 249.63 69.0555C251.996 69.0555 253.764 68.5374 254.929 67.4975C256.094 66.4613 256.763 64.8546 256.935 62.6809H264.596L264.592 62.6771Z" fill="#C6ADFF"/>
<path d="M267.986 61.0546C267.986 58.4229 268.514 56.0766 269.57 54.0193C270.626 51.9582 272.147 50.3665 274.13 49.2365C276.112 48.1102 278.416 47.5433 281.04 47.5433C284.77 47.5433 287.813 48.6396 290.171 50.8282C292.529 53.0207 293.843 55.994 294.117 59.7519L294.168 61.5651C294.168 65.6347 292.983 68.9008 290.617 71.3598C288.251 73.8187 285.075 75.0501 281.091 75.0501C277.106 75.0501 273.926 73.8262 271.553 71.371C269.179 68.9158 267.99 65.5859 267.99 61.3662V61.0471L267.986 61.0546ZM275.369 61.5576C275.369 64.0804 275.862 66.0063 276.852 67.339C277.837 68.6755 279.253 69.34 281.091 69.34C282.929 69.34 284.274 68.6793 285.279 67.3653C286.284 66.0476 286.784 63.9415 286.784 61.0433C286.784 58.5731 286.284 56.6547 285.279 55.2957C284.274 53.9367 282.862 53.2572 281.04 53.2572C279.217 53.2572 277.837 53.9329 276.852 55.2844C275.866 56.6359 275.369 58.727 275.369 61.5576Z" fill="#C6ADFF"/>
<path d="M297.562 61.1076C297.562 56.9706 298.527 53.6782 300.459 51.2267C302.391 48.7752 305.035 47.5476 308.39 47.5476C311.08 47.5476 313.302 48.5124 315.057 50.4421V36.9045H322.464V74.5663H315.796L315.441 71.747C313.603 73.9544 311.237 75.0581 308.339 75.0581C305.085 75.0581 302.477 73.8268 300.51 71.3678C298.543 68.9088 297.562 65.4888 297.562 61.1076ZM304.945 61.6332C304.945 64.1222 305.394 66.0294 306.298 67.3546C307.201 68.6798 308.511 69.3443 310.232 69.3443C312.512 69.3443 314.123 68.4208 315.057 66.57V56.0846C314.138 54.2338 312.547 53.3102 310.283 53.3102C306.724 53.3102 304.945 56.0846 304.945 61.6332Z" fill="#C6ADFF"/>
<path d="M344.2 74.5677C343.859 73.9295 343.613 73.1373 343.46 72.1875C341.673 74.0984 339.347 75.0557 336.488 75.0557C333.782 75.0557 331.537 74.3049 329.758 72.7995C327.979 71.2978 327.087 69.4019 327.087 67.1119C327.087 64.3 328.174 62.1414 330.344 60.6397C332.515 59.1343 335.651 58.376 339.757 58.3609H343.155V56.8405C343.155 55.6129 342.827 54.6331 342.174 53.8972C341.517 53.1614 340.484 52.7935 339.069 52.7935C337.825 52.7935 336.852 53.0788 336.144 53.6532C335.436 54.2239 335.084 55.0085 335.084 56.0071H327.701C327.701 54.4716 328.194 53.0488 329.183 51.7424C330.168 50.4359 331.568 49.4073 333.371 48.6639C335.178 47.9206 337.204 47.549 339.448 47.549C342.854 47.549 345.556 48.3711 347.559 50.0117C349.561 51.656 350.558 53.9648 350.558 56.9381V68.4371C350.574 70.9562 350.941 72.8595 351.657 74.151V74.5677H344.2ZM338.095 69.6385C339.186 69.6385 340.191 69.4057 341.11 68.9402C342.029 68.4747 342.71 67.8477 343.151 67.0631V62.5018H340.395C336.699 62.5018 334.732 63.7294 334.494 66.1809L334.47 66.5976C334.47 67.4798 334.795 68.2081 335.44 68.7788C336.085 69.3494 336.973 69.6385 338.095 69.6385Z" fill="#C6ADFF"/>
<path d="M371.755 54.68C370.75 54.5486 369.867 54.4848 369.1 54.4848C366.308 54.4848 364.478 55.3933 363.61 57.2066V74.5658H356.227V48.0351H363.199L363.402 51.1961C364.885 48.7597 366.934 47.5433 369.558 47.5433C370.375 47.5433 371.141 47.6485 371.857 47.8624L371.755 54.68Z" fill="#C6ADFF"/>
</g>
<defs>
<filter id="filter0_ddddd_707_89" x="0" y="0" width="467" height="196" filterUnits="userSpaceOnUse" color-interpolation-filters="sRGB">
<feFlood flood-opacity="0" result="BackgroundImageFix"/>
<feColorMatrix in="SourceAlpha" type="matrix" values="0 0 0 0 0 0 0 0 0 0 0 0 0 0 0 0 0 0 127 0" result="hardAlpha"/>
<feOffset/>
<feColorMatrix type="matrix" values="0 0 0 0 0 0 0 0 0 0 0 0 0 0 0 0 0 0 0.15 0"/>
<feBlend mode="normal" in2="BackgroundImageFix" result="effect1_dropShadow_707_89"/>
<feColorMatrix in="SourceAlpha" type="matrix" values="0 0 0 0 0 0 0 0 0 0 0 0 0 0 0 0 0 0 127 0" result="hardAlpha"/>
<feOffset dy="4"/>
<feGaussianBlur stdDeviation="4"/>
<feColorMatrix type="matrix" values="0 0 0 0 0 0 0 0 0 0 0 0 0 0 0 0 0 0 0.15 0"/>
<feBlend mode="normal" in2="effect1_dropShadow_707_89" result="effect2_dropShadow_707_89"/>
<feColorMatrix in="SourceAlpha" type="matrix" values="0 0 0 0 0 0 0 0 0 0 0 0 0 0 0 0 0 0 127 0" result="hardAlpha"/>
<feOffset dy="14"/>
<feGaussianBlur stdDeviation="7"/>
<feColorMatrix type="matrix" values="0 0 0 0 0 0 0 0 0 0 0 0 0 0 0 0 0 0 0.13 0"/>
<feBlend mode="normal" in2="effect2_dropShadow_707_89" result="effect3_dropShadow_707_89"/>
<feColorMatrix in="SourceAlpha" type="matrix" values="0 0 0 0 0 0 0 0 0 0 0 0 0 0 0 0 0 0 127 0" result="hardAlpha"/>
<feOffset dy="32"/>
<feGaussianBlur stdDeviation="9.5"/>
<feColorMatrix type="matrix" values="0 0 0 0 0 0 0 0 0 0 0 0 0 0 0 0 0 0 0.08 0"/>
<feBlend mode="normal" in2="effect3_dropShadow_707_89" result="effect4_dropShadow_707_89"/>
<feColorMatrix in="SourceAlpha" type="matrix" values="0 0 0 0 0 0 0 0 0 0 0 0 0 0 0 0 0 0 127 0" result="hardAlpha"/>
<feOffset dy="57"/>
<feGaussianBlur stdDeviation="11.5"/>
<feColorMatrix type="matrix" values="0 0 0 0 0 0 0 0 0 0 0 0 0 0 0 0 0 0 0.02 0"/>
<feBlend mode="normal" in2="effect4_dropShadow_707_89" result="effect5_dropShadow_707_89"/>
<feBlend mode="normal" in="SourceGraphic" in2="effect5_dropShadow_707_89" result="shape"/>
</filter>
</defs>
</svg>
